<svg xmlns="http://www.w3.org/2000/svg" xmlns:xlink="http://www.w3.org/1999/xlink" width="200" height="200" viewBox="0 0 200 200">
  <defs>
    <clipPath id="clip-icon7_2">
      <rect width="200" height="200"/>
    </clipPath>
  </defs>
  <g id="icon7_2" data-name="icon7 – 2" clip-path="url(#clip-icon7_2)">
    <path id="Subtraction_1" data-name="Subtraction 1" d="M-1007.37,175.31a72.658,72.658,0,0,1-37.805-10.56,54.107,54.107,0,0,0,23.864,5.559,53.349,53.349,0,0,0,37.984-15.7,53.312,53.312,0,0,0,15.7-37.951,53.312,53.312,0,0,0-15.7-37.951l-37.984-37.984L-1059.3,78.7a53.66,53.66,0,0,0-10.152,61.773,72.091,72.091,0,0,1-8.9-22.313,72.945,72.945,0,0,1-1.185-23.657A72.389,72.389,0,0,1-1073,71.562a72.29,72.29,0,0,1,14.249-20.177L-1007.37,0l51.385,51.386A72.042,72.042,0,0,1-940.051,75.4a72.455,72.455,0,0,1,5.311,27.33,72.455,72.455,0,0,1-5.311,27.33,72.042,72.042,0,0,1-15.933,24.01A72.011,72.011,0,0,1-980.009,170,72.6,72.6,0,0,1-1007.37,175.31Z" transform="translate(1107 12)" fill="#2196f3"/>
    <path id="ic_thumb_up_24px" d="M1,52.972H11.394V21.789H1ZM58.169,24.387a5.212,5.212,0,0,0-5.2-5.2h-16.4L39.043,7.315l.078-.832a3.912,3.912,0,0,0-1.143-2.754L35.223,1l-17.1,17.125a5.081,5.081,0,0,0-1.533,3.664V47.774a5.212,5.212,0,0,0,5.2,5.2H45.176a5.162,5.162,0,0,0,4.781-3.17L57.8,31.481a5.134,5.134,0,0,0,.364-1.9V24.621l-.026-.026Z" transform="translate(25.831 127)" fill="#2196f3"/>
  </g>
</svg>
