<svg xmlns="http://www.w3.org/2000/svg" xmlns:xlink="http://www.w3.org/1999/xlink" width="200" height="200" viewBox="0 0 200 200">
  <defs>
    <clipPath id="clip-icon10">
      <rect width="200" height="200"/>
    </clipPath>
  </defs>
  <g id="icon10" clip-path="url(#clip-icon10)">
    <path id="Subtraction_1" data-name="Subtraction 1" d="M-1007.37,175.31a72.658,72.658,0,0,1-37.805-10.56,54.107,54.107,0,0,0,23.864,5.559,53.349,53.349,0,0,0,37.984-15.7,53.312,53.312,0,0,0,15.7-37.951,53.312,53.312,0,0,0-15.7-37.951l-37.984-37.984L-1059.3,78.7a53.66,53.66,0,0,0-10.152,61.773,72.091,72.091,0,0,1-8.9-22.313,72.945,72.945,0,0,1-1.185-23.657A72.389,72.389,0,0,1-1073,71.562a72.29,72.29,0,0,1,14.249-20.177L-1007.37,0l51.385,51.386A72.042,72.042,0,0,1-940.051,75.4a72.455,72.455,0,0,1,5.311,27.33,72.455,72.455,0,0,1-5.311,27.33,72.042,72.042,0,0,1-15.933,24.01A72.011,72.011,0,0,1-980.009,170,72.6,72.6,0,0,1-1007.37,175.31Z" transform="translate(1107 12)" fill="#2196f3"/>
    <path id="star" d="M83.228,21.183,65.173,18.55,57.1,2.189a3.958,3.958,0,0,0-7.093,0L41.941,18.55,23.886,21.183A3.957,3.957,0,0,0,21.7,27.93L34.761,40.659,31.671,58.64A3.952,3.952,0,0,0,37.405,62.8l16.152-8.49L69.709,62.8a3.955,3.955,0,0,0,5.734-4.165L72.353,40.659,85.416,27.93a3.957,3.957,0,0,0-2.187-6.747Zm-17.239,17.4,2.929,17.1-15.361-8.07L38.2,55.686l2.929-17.1L28.693,26.472l17.177-2.5L53.557,8.4l7.687,15.571,17.177,2.5L65.989,38.583Z" transform="translate(6.678 123.759)" fill="#2196f3"/>
  </g>
</svg>
