<svg xmlns="http://www.w3.org/2000/svg" xmlns:xlink="http://www.w3.org/1999/xlink" width="200" height="200" viewBox="0 0 200 200"><defs><style>.a{clip-path:url(#b);}.b{fill:#2196f3;}</style><clipPath id="b"><rect width="200" height="200"/></clipPath></defs><g id="a" class="a"><path class="b" d="M-1007.37,175.31a72.658,72.658,0,0,1-37.805-10.56,54.107,54.107,0,0,0,23.864,5.559,53.349,53.349,0,0,0,37.984-15.7,53.312,53.312,0,0,0,15.7-37.951,53.312,53.312,0,0,0-15.7-37.951l-37.984-37.984L-1059.3,78.7a53.66,53.66,0,0,0-10.152,61.773,72.091,72.091,0,0,1-8.9-22.313,72.945,72.945,0,0,1-1.185-23.657A72.389,72.389,0,0,1-1073,71.562a72.29,72.29,0,0,1,14.249-20.177L-1007.37,0l51.385,51.386A72.042,72.042,0,0,1-940.051,75.4a72.455,72.455,0,0,1,5.311,27.33,72.455,72.455,0,0,1-5.311,27.33,72.042,72.042,0,0,1-15.933,24.01A72.011,72.011,0,0,1-980.009,170,72.6,72.6,0,0,1-1007.37,175.31Z" transform="translate(1107 12)"/><path class="b" d="M60.7,39.386a26.534,26.534,0,0,0,.238-3.337,26.535,26.535,0,0,0-.238-3.337l7.184-5.618a1.718,1.718,0,0,0,.409-2.179L61.48,13.134a1.711,1.711,0,0,0-2.077-.749l-8.478,3.4a24.877,24.877,0,0,0-5.754-3.337L43.876,3.43A1.66,1.66,0,0,0,42.208,2H28.588A1.66,1.66,0,0,0,26.92,3.43l-1.294,9.023a26.16,26.16,0,0,0-5.754,3.337l-8.478-3.4a1.661,1.661,0,0,0-2.077.749L2.507,24.915a1.679,1.679,0,0,0,.409,2.179L10.1,32.712a27,27,0,0,0-.238,3.337,27,27,0,0,0,.238,3.337L2.915,45a1.718,1.718,0,0,0-.409,2.179l6.81,11.781a1.711,1.711,0,0,0,2.077.749l8.478-3.4a24.876,24.876,0,0,0,5.754,3.337l1.294,9.023a1.66,1.66,0,0,0,1.668,1.43h13.62a1.66,1.66,0,0,0,1.668-1.43l1.294-9.023a26.159,26.159,0,0,0,5.754-3.337l8.478,3.4a1.661,1.661,0,0,0,2.077-.749l6.81-11.781A1.718,1.718,0,0,0,67.881,45Zm-25.3,8.58A11.917,11.917,0,1,1,47.315,36.049,11.93,11.93,0,0,1,35.4,47.966Z" transform="translate(23.944 118)"/></g></svg>