<svg xmlns="http://www.w3.org/2000/svg" xmlns:xlink="http://www.w3.org/1999/xlink" width="200" height="200" viewBox="0 0 200 200"><defs><style>.a{clip-path:url(#b);}.b{fill:#2196f3;}</style><clipPath id="b"><rect width="200" height="200"/></clipPath></defs><g id="a" class="a"><path class="b" d="M-1007.37,175.31a72.658,72.658,0,0,1-37.805-10.56,54.107,54.107,0,0,0,23.864,5.559,53.349,53.349,0,0,0,37.984-15.7,53.312,53.312,0,0,0,15.7-37.951,53.312,53.312,0,0,0-15.7-37.951l-37.984-37.984L-1059.3,78.7a53.66,53.66,0,0,0-10.152,61.773,72.091,72.091,0,0,1-8.9-22.313,72.945,72.945,0,0,1-1.185-23.657A72.389,72.389,0,0,1-1073,71.562a72.29,72.29,0,0,1,14.249-20.177L-1007.37,0l51.385,51.386A72.042,72.042,0,0,1-940.051,75.4a72.455,72.455,0,0,1,5.311,27.33,72.455,72.455,0,0,1-5.311,27.33,72.042,72.042,0,0,1-15.933,24.01A72.011,72.011,0,0,1-980.009,170,72.6,72.6,0,0,1-1007.37,175.31Z" transform="translate(1107 12)"/><path class="b" d="M68.172,56.433,40.042,28.3A19.839,19.839,0,0,0,35.405,6.974,20.435,20.435,0,0,0,12.53,2.955L25.822,16.247l-9.274,9.274L2.948,12.229A19.922,19.922,0,0,0,6.966,35.1,19.839,19.839,0,0,0,28.3,39.74l28.13,28.13a2.988,2.988,0,0,0,4.328,0l7.11-7.11a2.784,2.784,0,0,0,.309-4.328Z" transform="translate(7.044 122.848)"/></g></svg>