<svg xmlns="http://www.w3.org/2000/svg" xmlns:xlink="http://www.w3.org/1999/xlink" width="200" height="200" viewBox="0 0 200 200"><defs><style>.a{clip-path:url(#b);}.b{fill:#2196f3;}</style><clipPath id="b"><rect width="200" height="200"/></clipPath></defs><g id="a" class="a"><path class="b" d="M-1007.37,175.31a72.658,72.658,0,0,1-37.805-10.56,54.107,54.107,0,0,0,23.864,5.559,53.349,53.349,0,0,0,37.984-15.7,53.312,53.312,0,0,0,15.7-37.951,53.312,53.312,0,0,0-15.7-37.951l-37.984-37.984L-1059.3,78.7a53.66,53.66,0,0,0-10.152,61.773,72.091,72.091,0,0,1-8.9-22.313,72.945,72.945,0,0,1-1.185-23.657A72.389,72.389,0,0,1-1073,71.562a72.29,72.29,0,0,1,14.249-20.177L-1007.37,0l51.385,51.386A72.042,72.042,0,0,1-940.051,75.4a72.455,72.455,0,0,1,5.311,27.33,72.455,72.455,0,0,1-5.311,27.33,72.042,72.042,0,0,1-15.933,24.01A72.011,72.011,0,0,1-980.009,170,72.6,72.6,0,0,1-1007.37,175.31Z" transform="translate(1107 12)"/><path class="b" d="M38.476,30.592a7.883,7.883,0,1,0,7.883,7.883A7.907,7.907,0,0,0,38.476,30.592ZM66.068,3H10.883A7.881,7.881,0,0,0,3,10.883V66.068a7.881,7.881,0,0,0,7.883,7.883H66.068a7.881,7.881,0,0,0,7.883-7.883V10.883A7.881,7.881,0,0,0,66.068,3Zm-6.9,35.476a19.951,19.951,0,0,1-.2,2.68l5.834,4.572a1.393,1.393,0,0,1,.315,1.774L59.6,57.041a1.4,1.4,0,0,1-1.695.591L51.05,54.873a21.139,21.139,0,0,1-4.651,2.72l-1.025,7.292a1.431,1.431,0,0,1-1.38,1.183H32.957a1.434,1.434,0,0,1-1.38-1.143l-1.025-7.292a20.269,20.269,0,0,1-4.651-2.72l-6.859,2.759a1.4,1.4,0,0,1-1.695-.591l-5.518-9.539a1.393,1.393,0,0,1,.315-1.774L17.979,41.2a21.038,21.038,0,0,1-.2-2.72,19.949,19.949,0,0,1,.2-2.68l-5.834-4.572a1.393,1.393,0,0,1-.315-1.774l5.518-9.539a1.4,1.4,0,0,1,1.695-.591L25.9,22.078a21.139,21.139,0,0,1,4.651-2.72l1.025-7.292a1.431,1.431,0,0,1,1.38-1.183H43.994a1.434,1.434,0,0,1,1.38,1.143L46.4,19.319a20.269,20.269,0,0,1,4.651,2.72l6.859-2.759a1.4,1.4,0,0,1,1.695.591l5.518,9.539a1.393,1.393,0,0,1-.315,1.774l-5.834,4.572a21.039,21.039,0,0,1,.2,2.72Z" transform="translate(23 114)"/></g></svg>