<svg xmlns="http://www.w3.org/2000/svg" xmlns:xlink="http://www.w3.org/1999/xlink" width="200" height="200" viewBox="0 0 200 200"><defs><style>.a{clip-path:url(#b);}.b{fill:#2196f3;}</style><clipPath id="b"><rect width="200" height="200"/></clipPath></defs><g id="a" class="a"><path class="b" d="M-1007.37,175.31a72.658,72.658,0,0,1-37.805-10.56,54.107,54.107,0,0,0,23.864,5.559,53.349,53.349,0,0,0,37.984-15.7,53.312,53.312,0,0,0,15.7-37.951,53.312,53.312,0,0,0-15.7-37.951l-37.984-37.984L-1059.3,78.7a53.66,53.66,0,0,0-10.152,61.773,72.091,72.091,0,0,1-8.9-22.313,72.945,72.945,0,0,1-1.185-23.657A72.389,72.389,0,0,1-1073,71.562a72.29,72.29,0,0,1,14.249-20.177L-1007.37,0l51.385,51.386A72.042,72.042,0,0,1-940.051,75.4a72.455,72.455,0,0,1,5.311,27.33,72.455,72.455,0,0,1-5.311,27.33,72.042,72.042,0,0,1-15.933,24.01A72.011,72.011,0,0,1-980.009,170,72.6,72.6,0,0,1-1007.37,175.31Z" transform="translate(1107 12)"/><path class="b" d="M59.585,32.8a9.928,9.928,0,1,0-9.928-9.928A9.9,9.9,0,0,0,59.585,32.8ZM29.8,28.828A11.914,11.914,0,1,0,17.886,16.914,11.864,11.864,0,0,0,29.8,28.828ZM59.585,40.743c-7.268,0-21.843,3.654-21.843,10.921V60.6H81.428V51.664C81.428,44.4,66.853,40.743,59.585,40.743ZM29.8,36.771c-9.253,0-27.8,4.647-27.8,13.9V60.6H29.8V51.664c0-3.376,1.311-9.293,9.412-13.781A48.781,48.781,0,0,0,29.8,36.771Z" transform="translate(12 124)"/></g></svg>